<svg width="1024" height="1024" viewBox="0 0 1024 1024" fill="none" xmlns="http://www.w3.org/2000/svg">
<g clip-path="url(#clip0_2008_8)">
<circle cx="512" cy="512" r="512" fill="#8E8E93"/>
<ellipse cx="512.5" cy="512" rx="511.5" ry="512" fill="white"/>
<ellipse cx="513" cy="512.5" rx="55" ry="54.5" fill="#8E8E93"/>
<path d="M550.582 339.056C549.61 343.685 545.527 347 540.796 347L483.127 347C478.302 347 474.166 343.556 473.292 338.811L448.9 206.345L423.165 66.5872C423.055 65.9898 423 65.3837 423 64.7763L423 52C423 46.4772 427.477 42 433 42L598 42C603.523 42 608 46.4772 608 52L608 64.6505C608 65.3412 607.928 66.03 607.786 66.706L578.457 206.345L550.582 339.056Z" fill="#D9D9D9"/>
<path d="M474.418 686.944C475.39 682.315 479.473 679 484.204 679L541.873 679C546.698 679 550.834 682.444 551.708 687.189L576.1 819.655L601.835 959.413C601.945 960.01 602 960.616 602 961.224L602 974C602 979.523 597.523 984 592 984L427 984C421.477 984 417 979.523 417 974L417 961.349C417 960.659 417.072 959.97 417.213 959.294L446.543 819.655L474.418 686.944Z" fill="#D9D9D9"/>
<path d="M380.693 392.572C384.21 395.73 385.036 400.919 382.672 405.012L353.709 455.179C351.298 459.354 346.252 461.215 341.708 459.604L214.991 414.7L81.2977 367.323C80.7222 367.119 80.1666 366.863 79.6379 366.558L68.6186 360.196C63.8357 357.434 62.197 351.318 64.9584 346.535L147.759 203.12C150.521 198.337 156.637 196.698 161.42 199.46L172.329 205.758C172.93 206.106 173.494 206.514 174.011 206.978L279.98 302.135L380.693 392.572Z" fill="#D9D9D9"/>
<path d="M644.307 632.913C640.79 629.755 639.965 624.566 642.328 620.472L671.291 570.306C673.702 566.131 678.748 564.27 683.292 565.881L810.009 610.785L943.702 658.162C944.278 658.366 944.833 658.622 945.362 658.927L956.381 665.289C961.164 668.051 962.803 674.167 960.042 678.95L877.241 822.365C874.479 827.148 868.363 828.787 863.581 826.025L852.671 819.726C852.07 819.379 851.506 818.97 850.99 818.507L745.02 723.35L644.307 632.913Z" fill="#D9D9D9"/>
<path d="M342.526 566.805C347.02 565.339 351.926 567.218 354.289 571.312L383.253 621.478C385.663 625.653 384.752 630.953 381.085 634.083L278.838 721.371L170.962 813.465C170.498 813.861 169.998 814.214 169.469 814.52L158.45 820.882C153.667 823.643 147.551 822.004 144.79 817.221L61.989 673.806C59.2275 669.023 60.8663 662.907 65.6492 660.146L76.5589 653.847C77.1602 653.5 77.7959 653.216 78.4559 653.001L213.849 608.807L342.526 566.805Z" fill="#D9D9D9"/>
<path d="M682.474 458.68C677.981 460.146 673.074 458.267 670.711 454.173L641.748 404.007C639.337 399.832 640.249 394.532 643.915 391.401L746.162 304.113L854.038 212.02C854.503 211.624 855.002 211.27 855.531 210.965L866.55 204.603C871.333 201.842 877.449 203.481 880.211 208.264L963.012 351.679C965.773 356.462 964.134 362.578 959.351 365.339L948.442 371.638C947.84 371.985 947.205 372.269 946.545 372.484L811.151 416.678L682.474 458.68Z" fill="#D9D9D9"/>
<circle cx="610.293" cy="476.894" r="28.9455" transform="rotate(-18.0728 610.293 476.894)" fill="#8E8E93"/>
<circle cx="572.886" cy="592.52" r="28.9455" transform="rotate(-18.0728 572.886 592.52)" fill="#8E8E93"/>
<circle cx="451.359" cy="592.674" r="28.9455" transform="rotate(-18.0728 451.359 592.674)" fill="#8E8E93"/>
<circle cx="413.659" cy="477.144" r="28.9455" transform="rotate(-18.0728 413.659 477.144)" fill="#8E8E93"/>
<circle cx="511.885" cy="405.587" r="28.9455" transform="rotate(-18.0728 511.885 405.587)" fill="#E52626"/>
</g>
<defs>
<clipPath id="clip0_2008_8">
<rect width="1024" height="1024" fill="white"/>
</clipPath>
</defs>
</svg>
